<svg width="262" height="253" viewBox="0 0 262 253" fill="none" xmlns="http://www.w3.org/2000/svg">
<path d="M127.497 1.67227L103.666 33.0775L93.9405 79.3059L128.244 98.6274L162.246 78.7791L151.602 32.5138L127.497 1.67227ZM97.5809 77.4206L106.097 37.7315L126.188 93.5155L97.5809 77.4206ZM107.452 33.681L127.539 7.11046L148.41 33.3651L128.183 90.7032L107.452 33.681ZM130.725 93.4805L149.198 37.3991L159.711 76.9414L130.725 93.4805Z" fill="#4B6973"/>
<line y1="-1" x2="154.424" y2="-1" transform="matrix(0.999999 0.000991789 0.000878786 1 85.2275 195.167)" stroke="#EEF2F6" stroke-width="2"/>
<line y1="-1" x2="114.771" y2="-1" transform="matrix(0.000878786 1 -0.999999 -0.000991789 119.072 134.84)" stroke="#EEF2F6" stroke-width="2"/>
<line y1="-1" x2="114.771" y2="-1" transform="matrix(0.000878786 1 -0.999999 -0.000991789 168.791 136.59)" stroke="#EEF2F6" stroke-width="2"/>
<line y1="-1" x2="114.771" y2="-1" transform="matrix(0.000878786 1 -0.999999 -0.000991789 213.233 134.933)" stroke="#EEF2F6" stroke-width="2"/>
<path d="M50.4903 66.1867L19.6798 66.1561L19.7019 91.3514L55.4929 91.3869L55.4997 99.0529L10.3337 99.0081L10.2712 27.9144L54.9489 27.9587L54.9557 35.6736L19.653 35.6386L19.6731 58.4901L50.4836 58.5207L50.4903 66.1867Z" fill="#48DCE5"/>
<path d="M50.4903 197.187L19.6798 197.156L19.7019 222.351L55.4929 222.387L55.4997 230.053L10.3337 230.008L10.2712 158.914L54.9489 158.959L54.9557 166.674L19.653 166.639L19.6731 189.49L50.4836 189.521L50.4903 197.187Z" fill="#4B6973"/>
<path d="M231.253 67.3395C223.211 65.0203 217.349 62.1825 213.668 58.826C210.019 55.4369 208.192 51.2685 208.188 46.3205C208.183 40.7216 210.409 36.1014 214.865 32.46C219.354 28.7861 225.179 26.9526 232.341 26.9598C237.223 26.9646 241.57 27.9129 245.38 29.8047C249.223 31.6965 252.188 34.3036 254.274 37.626C256.393 40.9484 257.454 44.579 257.457 48.5178L248.033 48.5085C248.03 44.2116 246.659 40.8411 243.923 38.397C241.186 35.9203 237.328 34.6795 232.347 34.6746C227.725 34.67 224.113 35.6918 221.51 37.74C218.94 39.7557 217.657 42.5702 217.66 46.1834C217.663 49.0806 218.886 51.5395 221.329 53.5601C223.805 55.5483 227.989 57.3753 233.883 59.0413C239.808 60.7073 244.432 62.5511 247.755 64.5726C251.109 66.5616 253.585 68.8916 255.183 71.5624C256.812 74.2333 257.629 77.3754 257.632 80.9887C257.637 86.7504 255.395 91.3706 250.906 94.8492C246.417 98.2952 240.413 100.015 232.893 100.007C228.01 100.002 223.452 99.07 219.219 97.2103C214.985 95.3181 211.712 92.7432 209.398 89.4857C207.116 86.2283 205.974 82.5325 205.97 78.3984L215.394 78.4077C215.397 82.7046 216.979 86.1079 220.139 88.6175C223.331 91.0946 227.58 92.3358 232.886 92.3411C237.834 92.346 241.626 91.3406 244.261 89.325C246.896 87.3094 248.212 84.5601 248.208 81.077C248.205 77.5939 246.982 74.9072 244.539 73.0167C242.096 71.0937 237.667 69.2013 231.253 67.3395Z" fill="#48DCE5"/>
<path d="M135.345 134.863C136.314 196.549 101.007 172.886 101.703 194.12C102.398 215.355 136.162 193.003 137.036 248.629" stroke="#4B6973" stroke-width="7"/>
<path d="M229.505 134.957C230.474 196.642 195.167 172.979 195.863 194.214C196.558 215.449 230.323 193.096 231.196 248.723" stroke="#4B6973" stroke-width="7"/>
</svg>
