<svg width="134" height="184" viewBox="0 0 134 184" fill="none" xmlns="http://www.w3.org/2000/svg">
<path d="M97.4722 12.0949C97.5245 104.057 44.5139 67.5357 45.0813 99.2058C45.6487 130.876 97.3765 98.768 97.4237 181.698" stroke="#48DCE6" stroke-width="3"/>
<path d="M10.6182 178.015L12.4639 172.075H13.9141L10.728 181.223C10.2349 182.542 9.45117 183.201 8.37695 183.201L8.12061 183.179L7.61523 183.083V181.985L7.98145 182.014C8.44043 182.014 8.79688 181.921 9.05078 181.736C9.30957 181.55 9.52197 181.211 9.68799 180.718L9.98828 179.912L7.16113 172.075H8.64062L10.6182 178.015ZM25.0469 174.038H18.9385V172.859H25.0469V174.038ZM25.0469 177.078H18.9385V175.906H25.0469V177.078ZM33.4624 174.968L35.2202 172.075H36.8022L34.2095 175.994L36.8828 180H35.3154L33.4844 177.034L31.6533 180H30.0786L32.752 175.994L30.1592 172.075H31.7266L33.4624 174.968ZM45.8477 174.28H48.8213V175.562H45.8477V178.931H44.4854V175.562H41.5117V174.28H44.4854V171.167H45.8477V174.28ZM60.9429 170.098L56.5264 180H55.1055L59.5073 170.449H53.7358V169.336H60.9429V170.098Z" fill="#4B6973"/>
<path d="M39.9521 166.003H40.2915C40.5047 166 40.6724 165.944 40.7944 165.834C40.9165 165.725 40.9775 165.578 40.9775 165.393C40.9775 164.976 40.77 164.768 40.355 164.768C40.1597 164.768 40.0034 164.824 39.8862 164.936C39.7707 165.047 39.7129 165.194 39.7129 165.378H39.2612C39.2612 165.096 39.3638 164.863 39.5688 164.677C39.7756 164.49 40.0376 164.396 40.355 164.396C40.6903 164.396 40.9531 164.485 41.1436 164.663C41.334 164.84 41.4292 165.087 41.4292 165.402C41.4292 165.557 41.3787 165.707 41.2778 165.852C41.1785 165.996 41.0426 166.105 40.8701 166.176C41.0654 166.238 41.216 166.341 41.3218 166.484C41.4292 166.627 41.4829 166.802 41.4829 167.009C41.4829 167.328 41.3787 167.581 41.1704 167.768C40.9621 167.955 40.6911 168.049 40.3574 168.049C40.0238 168.049 39.752 167.958 39.542 167.778C39.3337 167.597 39.2295 167.359 39.2295 167.062H39.6836C39.6836 167.25 39.7446 167.399 39.8667 167.512C39.9888 167.624 40.1523 167.68 40.3574 167.68C40.5755 167.68 40.7424 167.623 40.8579 167.509C40.9735 167.395 41.0312 167.232 41.0312 167.019C41.0312 166.812 40.9678 166.653 40.8408 166.542C40.7139 166.432 40.5308 166.375 40.2915 166.372H39.9521V166.003Z" fill="#4B6973"/>
<path d="M16.6245 168H14.2954V167.675L15.5259 166.308C15.7082 166.101 15.8335 165.934 15.9019 165.805C15.9718 165.675 16.0068 165.541 16.0068 165.402C16.0068 165.217 15.9507 165.065 15.8384 164.946C15.7261 164.827 15.5763 164.768 15.3892 164.768C15.1646 164.768 14.9896 164.832 14.8643 164.96C14.7406 165.087 14.6787 165.265 14.6787 165.493H14.2271C14.2271 165.166 14.332 164.901 14.542 164.699C14.7536 164.497 15.036 164.396 15.3892 164.396C15.7196 164.396 15.9808 164.484 16.1729 164.658C16.3649 164.83 16.4609 165.061 16.4609 165.349C16.4609 165.699 16.238 166.115 15.792 166.599L14.8398 167.631H16.6245V168Z" fill="#4B6973"/>
<line x1="0.623712" y1="152.671" x2="133.624" y2="0.670738" stroke="#4B6973"/>
<circle cx="62" cy="82" r="3" fill="#4B6973"/>
<circle cx="94" cy="46" r="3" fill="#4B6973"/>
<circle cx="45" cy="101" r="3" fill="#4B6973"/>
</svg>
